HIERARCHY
ROOT Hips
{
	OFFSET -0.179506 -22.333345 2.821913
	CHANNELS 6 Xposition Yposition Zposition Zrotation Yrotation Xrotation 
	JOINT LeftUpLeg
	{
		OFFSET 6.951974 -9.140623 -0.681533
		CHANNELS 3 Zrotation Yrotation Xrotation
		JOINT LeftLeg
		{
			OFFSET 3.427654 -37.519855 -0.449580
			CHANNELS 3 Zrotation Yrotation Xrotation
			JOINT LeftFoot
			{
				OFFSET -1.359570 -39.796059 -4.369333
				CHANNELS 3 Zrotation Yrotation Xrotation
				JOINT LeftToe
				{
					OFFSET 2.635814 -5.579078 11.928840
					CHANNELS 3 Zrotation Yrotation Xrotation
					End Site
					{
						OFFSET 0.000000 0.000000 0.000000
					}
				}
			}
		}
	}
	JOINT RightUpLeg
	{
		OFFSET -6.767048 -9.052170 -0.431982
		CHANNELS 3 Zrotation Yrotation Xrotation
		JOINT RightLeg
		{
			OFFSET -3.829005 -38.256897 -0.885003
			CHANNELS 3 Zrotation Yrotation Xrotation
			JOINT RightFoot
			{
				OFFSET 1.577377 -39.841461 -4.231180
				CHANNELS 3 Zrotation Yrotation Xrotation
				JOINT RightToe
				{
					OFFSET -2.537174 -4.814398 12.334795
					CHANNELS 3 Zrotation Yrotation Xrotation
					End Site
					{
						OFFSET 0.000000 0.000000 0.000000
					}
				}
			}
		}
	}
	JOINT Spine
	{
		OFFSET -0.253288 10.896323 -2.669631
		CHANNELS 3 Zrotation Yrotation Xrotation
		JOINT Spine1
		{
			OFFSET 0.548704 13.518043 0.109247
			CHANNELS 3 Zrotation Yrotation Xrotation
			JOINT Spine2
			{
				OFFSET 0.145701 5.292222 2.542457
				CHANNELS 3 Zrotation Yrotation Xrotation
				JOINT Neck
				{
					OFFSET -0.277840 21.387037 -4.285703
					CHANNELS 3 Zrotation Yrotation Xrotation
					JOINT Head
					{
						OFFSET 0.515184 6.496960 5.134897
						CHANNELS 3 Zrotation Yrotation Xrotation
						End Site
						{
							OFFSET 0.000000 0.000000 0.000000
						}
					}
				}
				JOINT LeftShoulder
				{
					OFFSET 7.884473 12.174932 -3.408961
					CHANNELS 3 Zrotation Yrotation Xrotation
					JOINT LeftArm
					{
						OFFSET 9.097692 3.046888 -0.886815
						CHANNELS 3 Zrotation Yrotation Xrotation
						JOINT LeftForeArm
						{
							OFFSET 25.961220 -1.277207 -2.745643
							CHANNELS 3 Zrotation Yrotation Xrotation
							JOINT LeftHand
							{
								OFFSET 24.923361 0.898606 -0.117091
								CHANNELS 3 Zrotation Yrotation Xrotation
								End Site
								{
									OFFSET 0.000000 0.000000 0.000000
								}
							}
						}
					}
				}
				JOINT RightShoulder
				{
					OFFSET -8.175920 11.883285 -3.861528
					CHANNELS 3 Zrotation Yrotation Xrotation
					JOINT RightArm
					{
						OFFSET -9.601238 3.255117 -0.914307
						CHANNELS 3 Zrotation Yrotation Xrotation
						JOINT RightForeArm
						{
							OFFSET -25.374195 -1.332924 -2.140099
							CHANNELS 3 Zrotation Yrotation Xrotation
							JOINT RightHand
							{
								OFFSET -25.529810 0.777228 -0.555919
								CHANNELS 3 Zrotation Yrotation Xrotation
								End Site
								{
									OFFSET 0.000000 0.000000 0.000000
								}
							}
						}
					}
				}
			}
		}
	}
}
MOTION
Frames: 16
Frame Time: 0.033333
90.801537 -115.392883 88.396584 -118.976265 -0.415391 83.373785 0.017203 5.582296 22.175380 -4.081890 -17.115370 8.150496 2.197877 8.146298 -25.641513 nan nan nan -5.298626 -2.521956 -19.629824 2.582821 -9.258944 -2.015974 9.567526 -6.525265 -14.240009 nan nan nan -1.794458 -4.765659 11.350861 2.838769 -4.019923 3.284559 2.080734 -4.081231 2.045958 1.228455 -0.620430 6.680313 0.581017 -6.519641 2.854855 -20.918749 -0.887785 2.885046 -52.315843 -16.993377 14.191797 8.203914 -48.601672 5.782255 1.448848 -15.940788 -14.598675 25.551685 -1.663655 2.976140 60.319124 -7.987076 13.211143 -12.982573 20.462316 -2.608416 12.149030 6.902669 1.461145 
89.872902 -114.605499 88.127434 -118.894833 -0.403538 83.419031 0.341886 5.648206 22.873184 -4.112426 -17.347028 8.422274 1.993097 8.090878 -26.158119 nan nan nan -5.184265 -2.816785 -19.932349 2.785136 -9.061144 -2.830961 9.827348 -6.678810 -14.254414 nan nan nan -1.720142 -4.829022 11.069258 2.833570 -4.004341 3.488062 2.064397 -4.180558 2.104756 1.209095 -0.658648 6.462931 0.482891 -6.555191 2.883098 -20.866243 -0.892168 2.835125 -52.270312 -17.419171 14.160875 8.529451 -48.982840 5.552369 1.394813 -16.417696 -14.971571 25.509604 -1.794677 2.898985 60.371803 -8.215159 13.168778 -13.086529 20.184171 -2.606278 12.473005 6.944255 1.743654 
88.937027 -113.813774 87.872498 -118.705572 -0.439288 83.389036 0.590760 5.622394 23.585180 -4.097765 -17.650089 8.768180 1.854760 7.995463 -26.630197 nan nan nan -5.186641 -2.928976 -20.222260 2.915640 -9.178770 -3.025452 9.952053 -7.028916 -14.382639 nan nan nan -1.765874 -4.996900 10.900818 2.820394 -4.024932 3.702819 2.060904 -4.189396 2.130388 1.224267 -0.655677 6.329503 0.512661 -6.593048 2.885343 -20.826494 -0.961711 2.848656 -52.191897 -17.796218 14.064821 8.915763 -49.440930 5.096512 1.276766 -16.621749 -15.230796 25.584303 -1.881187 2.912427 60.369190 -8.453211 13.059495 -13.241590 20.029746 -2.695112 12.731089 7.033860 2.093966 
88.007965 -113.017349 87.625191 -118.488678 -0.481632 83.364203 0.800286 5.536159 24.185807 -4.101014 -18.134755 9.305707 1.738657 7.979260 -27.035636 nan nan nan -5.222395 -2.861193 -20.677640 2.848354 -9.456676 -2.458496 9.985668 -7.239696 -14.807621 nan nan nan -1.804194 -5.200536 10.860829 2.793086 -4.003714 3.737795 2.041264 -4.248137 2.111234 1.239259 -0.572138 6.275783 0.584686 -6.552646 2.924889 -20.875656 -1.046298 2.928125 -52.090431 -17.971119 13.967745 9.508864 -50.079276 4.213297 1.232461 -16.411677 -15.442461 25.674694 -1.901828 3.003850 60.361439 -8.729329 12.928784 -13.343099 19.920421 -2.709609 12.995662 6.887690 2.264727 
87.088455 -112.203262 87.383255 -118.285162 -0.481135 83.334121 1.044491 5.331537 24.726973 -4.215064 -18.537861 10.012659 1.382003 7.988847 -27.416998 nan nan nan -5.235679 -2.682582 -21.242323 2.672616 -9.936210 -1.221531 9.874550 -7.342563 -15.356972 nan nan nan -1.781274 -5.427738 10.868036 2.761402 -3.920056 3.717669 1.987603 -4.354275 2.103930 1.345405 -0.443373 6.092728 0.526759 -6.568290 3.132364 -20.949476 -1.076739 2.964655 -51.951139 -18.140077 13.911504 10.019892 -50.721289 3.577605 1.106189 -16.459415 -15.487612 25.769970 -1.917374 2.990830 60.290246 -8.944590 12.885378 -13.228495 19.595158 -2.549335 13.016682 6.917784 2.469331 
86.160385 -111.366737 87.144241 -118.150713 -0.468934 83.244501 1.343439 5.169823 25.300406 -4.511273 -18.840793 10.929247 0.709334 7.955460 -27.748288 nan nan nan -5.303984 -2.379653 -21.723748 2.583699 -10.512380 0.319449 9.641623 -7.318701 -15.869654 nan nan nan -1.733386 -5.711622 10.916152 2.740174 -3.812209 3.732105 1.889528 -4.406524 2.131586 1.458151 -0.330509 5.824004 0.416305 -6.670132 3.306636 -20.996581 -1.091913 2.924591 -51.781234 -18.237267 13.962258 10.511187 -51.319964 3.285781 1.313489 -16.815861 -15.631466 25.879313 -1.885230 2.965668 60.254715 -9.126196 12.885484 -13.227212 19.209822 -2.454285 12.771202 7.264989 2.544143 
85.203476 -110.518646 86.917763 -117.936562 -0.366315 83.085151 1.715721 5.036891 25.855194 -4.802473 -19.263504 12.121733 -0.187948 7.887538 -28.090407 nan nan nan -5.364281 -1.910398 -21.962254 2.542083 -11.113855 1.886659 9.307516 -7.443178 -16.315385 nan nan nan -1.611879 -6.121134 11.035756 2.757968 -3.728574 3.693012 1.776146 -4.385085 2.194587 1.469515 -0.327281 5.621363 0.295202 -6.777126 3.454921 -21.051830 -1.081215 2.891418 -51.750312 -18.340323 13.965759 10.914431 -51.573902 3.089518 1.726059 -17.386193 -16.097014 25.948748 -1.883579 2.940939 60.257980 -9.284460 12.826752 -13.306239 18.851956 -2.384130 12.632763 7.608370 2.317285 
84.218178 -109.649635 86.706718 -117.664386 -0.236622 82.930735 2.054060 4.783412 26.381643 -4.985586 -19.619546 13.306872 -0.622449 7.905673 -28.371907 nan nan nan -5.412365 -1.542142 -22.101307 2.544149 -11.615046 3.674532 9.024475 -7.516948 -16.720541 nan nan nan -1.489181 -6.443995 11.081475 2.818331 -3.705444 3.700991 1.683338 -4.399989 2.204701 1.498160 -0.300453 5.545424 0.206037 -6.907862 3.602155 -21.123195 -1.019876 2.886625 -51.798992 -18.428601 13.963812 11.088045 -51.691137 2.868882 1.830022 -17.880806 -16.475145 26.033137 -1.917145 2.944392 60.162314 -9.438314 12.720977 -13.294843 18.532681 -2.398065 12.490465 7.706914 2.114403 
83.225365 -108.743050 86.506889 -117.546357 -0.065573 82.778212 2.415911 4.524187 26.896537 -5.185661 -19.886339 14.529166 -0.822251 8.026513 -28.611592 nan nan nan -5.302520 -1.228022 -22.262174 2.540343 -12.088354 5.724365 8.799642 -7.451642 -16.938669 nan nan nan -1.349373 -6.710924 11.035206 2.874963 -3.618350 3.864990 1.607417 -4.424085 2.142788 1.531503 -0.252381 5.539269 0.122086 -6.954346 3.619253 -21.277517 -0.988654 2.860611 -51.774541 -18.334101 13.993418 11.314286 -52.137512 2.519113 1.678166 -17.673752 -16.469827 26.146440 -1.898057 2.950526 59.999353 -9.602579 12.552219 -13.203284 18.285765 -2.556628 12.249466 7.650043 2.075702 
82.236732 -107.830811 86.320587 -117.492974 0.099139 82.619760 2.797390 4.274474 27.349422 -5.531167 -20.068494 15.924816 -1.023027 8.087181 -28.730341 nan nan nan -5.104404 -1.042372 -22.554358 2.444605 -12.743626 8.082927 8.460753 -7.399113 -16.207757 nan nan nan -1.215145 -6.945217 10.968311 2.941989 -3.508641 4.079922 1.557721 -4.440042 2.056194 1.487193 -0.287288 5.543308 0.046094 -6.848216 3.636885 -21.472533 -0.992500 2.861205 -51.783607 -18.227373 14.012384 11.582703 -52.507621 2.390950 1.643703 -17.258599 -16.401246 26.188250 -1.849661 2.976021 59.922324 -9.745461 12.385399 -13.189869 18.083514 -2.599476 12.191732 7.732538 1.854841 
81.234497 -106.876122 86.146294 -117.248932 0.220480 82.513805 3.219588 3.954536 27.634550 -5.941764 -20.244038 17.488730 -1.200564 7.949232 -28.778240 nan nan nan -4.931730 -1.152002 -22.807634 2.257952 -13.475631 10.276434 8.256028 -7.162120 -14.093980 nan nan nan -1.172513 -7.154566 10.781107 3.045080 -3.554582 4.333075 1.539220 -4.505756 1.938794 1.419211 -0.402982 5.641731 0.029624 -6.680518 3.683612 -21.637779 -0.963895 2.943109 -51.696070 -18.138010 14.073031 11.442642 -52.618556 2.847562 1.845949 -17.234758 -16.765018 26.265568 -1.822809 3.022834 59.725446 -9.886222 12.384810 -13.061188 17.816888 -2.471466 12.021629 8.013143 1.305152 
80.259010 -105.888191 85.998489 -116.920911 0.339009 82.534703 3.628327 3.560656 27.554490 -6.312224 -20.144950 19.405123 -1.536585 7.667853 -28.703063 nan nan nan -4.841593 -1.307511 -23.001054 2.130848 -13.949116 12.005958 8.817817 -6.625722 -11.250129 nan nan nan -1.209556 -7.287942 10.467416 3.249431 -3.759072 4.572386 1.489288 -4.502721 1.826188 1.492496 -0.456559 5.678036 0.002159 -6.716102 3.821961 -21.902304 -0.962139 3.133048 -51.361868 -17.901083 14.161357 10.735770 -52.766677 4.107563 2.287490 -18.068537 -15.423284 26.540567 -1.915774 3.028156 59.325812 -10.018290 12.324801 -12.860474 17.640828 -2.275929 11.752289 8.301272 0.930293 
79.315514 -104.918137 85.888931 -116.727727 0.651265 82.721091 4.125718 3.075267 27.158225 -6.796708 -19.954973 21.593961 -1.782584 7.537377 -28.385539 nan nan nan -4.642239 -1.387910 -23.334712 2.197593 -13.787551 13.622997 8.476574 -6.457130 -8.716678 nan nan nan -0.942143 -7.413055 9.934833 3.456737 -3.785060 4.897346 1.473478 -4.604270 1.691998 1.295234 -0.766039 5.753197 0.028541 -6.535989 3.727736 -22.453448 -0.905279 3.305818 -51.256138 -17.912349 13.973334 11.255930 -52.948531 2.759397 1.220732 -17.284359 -16.584828 26.808828 -2.131066 3.104028 58.777102 -10.024481 12.296647 -12.890948 17.847507 -2.163607 12.497768 7.784718 1.059448 
78.412376 -103.947372 85.813484 -116.729894 1.014839 83.009113 4.635103 2.575619 26.528204 -7.548289 -19.644449 24.000413 -1.812035 7.430762 -27.929926 nan nan nan -4.465810 -1.326381 -23.861481 2.650835 -12.977436 15.219576 7.979736 -6.639795 -6.219693 nan nan nan -0.613867 -7.502733 9.232196 3.722571 -3.740289 5.310708 1.381493 -4.649561 1.564168 1.155415 -1.064475 5.773696 -0.027439 -6.330244 3.806017 -23.034256 -0.864027 3.397949 -51.010603 -17.811157 13.985444 11.166560 -52.821281 2.707473 0.887823 -16.857561 -16.282260 27.118751 -2.265920 3.125857 58.195275 -9.957742 12.262513 -12.866702 17.885752 -2.091949 13.051345 7.519171 1.263082 
77.492401 -102.982513 85.781227 -116.771865 1.386025 83.197538 5.113812 2.052204 25.883494 -8.338084 -19.032125 26.551145 -1.645761 7.364317 -27.176452 nan nan nan -4.362282 -0.936840 -24.182088 3.303751 -11.995921 16.643802 6.946545 -7.344662 -4.338337 nan nan nan -0.294434 -7.610797 8.603250 4.027789 -3.667403 5.832618 1.272182 -4.645581 1.360928 1.119812 -1.359839 5.761849 -0.289648 -6.182632 4.094433 -23.639509 -0.906672 3.545504 -50.702911 -17.527454 14.149370 10.610450 -52.592245 3.995547 0.845237 -17.056109 -14.098626 27.464300 -2.174401 3.319319 57.684572 -9.878813 12.234729 -12.852698 17.671618 -2.247987 12.798931 7.704373 1.285350 
76.539017 -102.005714 85.780113 -116.918556 1.876934 83.273423 5.716380 1.428605 25.341588 -9.193005 -18.078029 29.082221 -1.632410 7.333442 -25.999159 nan nan nan -4.118551 -0.159503 -24.333498 4.056116 -11.322309 18.007757 5.347307 -8.370932 -3.300756 nan nan nan 0.098791 -7.811733 8.040738 4.317192 -3.475541 6.395095 1.227415 -4.610824 1.130340 0.961228 -1.762158 5.916421 -0.501733 -5.907672 4.281939 -24.199309 -0.783755 3.749123 -50.998007 -17.554327 14.080358 11.554066 -52.300077 2.356263 -0.741528 -16.162309 -15.666892 27.622881 -2.110241 3.659679 57.342521 -9.657671 12.385005 -13.047048 17.500168 -2.488985 13.070248 7.423512 1.154499 
